<?xml version="1.0" encoding="UTF-8"?>
<svg version="1.1" xmlns="http://www.w3.org/2000/svg" width="500" height="500">
<path d="M0 0 C2.9375 2.4375 2.9375 2.4375 5 5 C6.051875 6.0828125 6.051875 6.0828125 7.125 7.1875 C11.16348241 13.24522362 13.02280344 20.75855168 12 28 C10.79761528 33.32484662 9.36571156 38.60994145 6 43 C5.34 43 4.68 43 4 43 C3.76925781 43.60328125 3.53851563 44.2065625 3.30078125 44.828125 C0.68770786 49.19109439 -4.32752288 50.56012581 -9 52 C-19.0076398 53.3856732 -25.97819969 51.28348482 -34.25 45.875 C-41.23409365 38.57344755 -42.72321156 31.4625441 -42.59375 21.62548828 C-42.21322092 13.53754651 -39.84978203 8.04860403 -34.3125 2.125 C-22.84152414 -5.23373923 -12.31846884 -6.13930162 0 0 Z M-26 13 C-29.77266665 18.15597776 -29.81116445 23.8494124 -29 30 C-27.81788968 33.40690256 -26.31937949 36.15935864 -23.19140625 38.15234375 C-18.88529861 39.8179861 -14.51525139 39.73874353 -10 39 C-6.50474412 37.12122372 -3.65200418 34.89848275 -2.3359375 31.06640625 C-1.24772557 24.37263752 -1.66821091 18.94962337 -5 13 C-8.85708315 9.38398455 -12.68266599 8.63571966 -17.9375 8.72265625 C-21.42504073 9.1916248 -23.4041149 10.70596201 -26 13 Z " fill="#D6D7D7" transform="translate(320,194)"/>
<path d="M0 0 C4.2316323 -0.14994881 8.46179992 -0.25794872 12.6953125 -0.32958984 C14.13080832 -0.35949601 15.56612568 -0.40023863 17.00097656 -0.45263672 C26.13416504 -0.77745723 33.86911449 -0.52689597 41 6 C47.23638689 14.70550863 47.92422974 23.6004293 47 34 C45.61111282 40.36057251 42.22329025 44.28898705 37.390625 48.4921875 C29.59984794 53.40597826 22.55615929 53.40874081 13.5625 53.25 C12.36689453 53.24484375 11.17128906 53.2396875 9.93945312 53.234375 C1.15446608 53.15446608 1.15446608 53.15446608 0 52 C-0.09340434 50.37325222 -0.11745171 48.74245949 -0.11352539 47.11303711 C-0.11344986 46.07203354 -0.11337433 45.03102997 -0.11329651 43.95848083 C-0.10813522 42.8262056 -0.10297394 41.69393036 -0.09765625 40.52734375 C-0.0962413 39.37456436 -0.09482635 38.22178497 -0.09336853 37.03407288 C-0.08775005 33.33518936 -0.07519442 29.63636536 -0.0625 25.9375 C-0.05748738 23.43684983 -0.05292406 20.93619871 -0.04882812 18.43554688 C-0.03777462 12.29034412 -0.02101852 6.14517631 0 0 Z M13 11 C12.97534254 15.1117256 12.95716041 19.22342278 12.94506836 23.33520508 C12.9400292 24.73495228 12.93319784 26.1346942 12.92456055 27.53442383 C12.9124768 29.54245777 12.90730193 31.55052957 12.90234375 33.55859375 C12.89710693 34.76829834 12.89187012 35.97800293 12.88647461 37.22436523 C12.68224715 39.90812017 12.68224715 39.90812017 14 41 C19.70494607 41.62454146 24.09627998 41.19312001 29 38 C32.2925466 35.15239213 33.80577292 33.17011408 34.203125 28.73046875 C34.30054507 23.44543021 34.32529585 19.36445081 31 15 C26.81573689 11.78905469 22.95981522 10.78581043 17.72265625 10.8984375 C16.83457275 10.91310059 15.94648926 10.92776367 15.03149414 10.94287109 C14.02590454 10.9711499 14.02590454 10.9711499 13 11 Z " fill="#DFDEDD" transform="translate(64,192)"/>
<path d="M0 0 C3.23823073 0.04128456 6.4754445 0.09510466 9.71289062 0.17822266 C11.10624737 0.20983487 12.49987902 0.23118711 13.89355469 0.24169922 C23.62733046 0.31597627 29.99013287 1.29962359 37.28295898 7.94482422 C37.72897461 8.49138672 38.17499023 9.03794922 38.63452148 9.60107422 C39.09600586 10.14763672 39.55749023 10.69419922 40.03295898 11.25732422 C43.24252299 16.08189177 43.64452323 20.66570905 43.63452148 26.35107422 C43.63645508 27.48017212 43.63645508 27.48017212 43.63842773 28.63208008 C43.52461819 34.62324712 42.3020923 38.87165563 39.25952148 44.10107422 C38.59952148 44.10107422 37.93952148 44.10107422 37.25952148 44.10107422 C37.25952148 44.76107422 37.25952148 45.42107422 37.25952148 46.10107422 C36.59952148 46.10107422 35.93952148 46.10107422 35.25952148 46.10107422 C34.92952148 47.09107422 34.59952148 48.08107422 34.25952148 49.10107422 C28.38041646 52.87257555 24.24818709 54.22641817 17.21655273 54.23388672 C16.0609082 54.23517578 14.90526367 54.23646484 13.71459961 54.23779297 C12.51254883 54.23392578 11.31049805 54.23005859 10.07202148 54.22607422 C8.85836914 54.22994141 7.6447168 54.23380859 6.39428711 54.23779297 C5.24250977 54.23650391 4.09073242 54.23521484 2.90405273 54.23388672 C1.84549072 54.23275879 0.78692871 54.23163086 -0.30371094 54.23046875 C-2.74047852 54.10107422 -2.74047852 54.10107422 -3.74047852 53.10107422 C-3.8390945 51.47979999 -3.86846618 49.85425054 -3.86987305 48.22998047 C-3.87302521 47.19220459 -3.87617737 46.15442871 -3.87942505 45.08520508 C-3.87740082 43.95606689 -3.87537659 42.82692871 -3.87329102 41.66357422 C-3.8747261 39.93796265 -3.8747261 39.93796265 -3.87619019 38.17749023 C-3.8768722 35.73958278 -3.87501642 33.30167352 -3.87084961 30.86376953 C-3.86550169 27.11730904 -3.87079391 23.37096845 -3.87719727 19.62451172 C-3.87653649 17.26253229 -3.87525533 14.90055293 -3.87329102 12.53857422 C-3.87531525 11.40943604 -3.87733948 10.28029785 -3.87942505 9.11694336 C-3.87627289 8.07916748 -3.87312073 7.0413916 -3.86987305 5.97216797 C-3.86907745 5.05363037 -3.86828186 4.13509277 -3.86746216 3.1887207 C-3.67219326 -0.02155445 -3.25301829 0.11997769 0 0 Z M9.25952148 12.10107422 C9.23486403 16.21279982 9.2166819 20.324497 9.20458984 24.4362793 C9.19955069 25.8360265 9.19271932 27.23576842 9.18408203 28.63549805 C9.17199829 30.64353199 9.16682342 32.65160379 9.16186523 34.65966797 C9.15662842 35.86937256 9.1513916 37.07907715 9.14599609 38.32543945 C8.94176863 41.00919439 8.94176863 41.00919439 10.25952148 42.10107422 C15.92760167 42.72157984 20.42876132 42.35902875 25.25952148 39.10107422 C29.64161539 34.3636754 30.56612622 30.65656459 30.47436523 24.38623047 C30.06200837 20.00025293 28.47042891 17.16520499 25.19702148 14.28857422 C20.10317171 12.22935835 14.71152141 12.10107422 9.25952148 12.10107422 Z " fill="#E5E5E5" transform="translate(227.740478515625,190.89892578125)"/>
<path d="M0 0 C2 2 2 2 2.1953125 5.9140625 C2.18386556 7.48450818 2.15788715 9.05485698 2.125 10.625 C2.08375 13.38875 2.0425 16.1525 2 19 C7.94 19.33 13.88 19.66 20 20 C20 13.73 20 7.46 20 1 C29.796875 -0.2890625 29.796875 -0.2890625 34 2 C34.02526739 9.24486551 34.0428318 16.48971974 34.05493164 23.73461914 C34.05997356 26.20142033 34.06680691 28.66821852 34.07543945 31.13500977 C34.08751125 34.67204529 34.09322956 38.20904145 34.09765625 41.74609375 C34.10281754 42.85649521 34.10797882 43.96689667 34.11329651 45.11094666 C34.11337204 46.13192947 34.11344757 47.15291229 34.11352539 48.20483398 C34.115746 49.10862289 34.11796661 50.0124118 34.12025452 50.94358826 C34 53 34 53 33 54 C31.00200428 54.09873816 29.00042842 54.12971799 27 54.125 C25.906875 54.12757813 24.81375 54.13015625 23.6875 54.1328125 C21 54 21 54 20 53 C19.91314397 51.43827255 19.89297781 49.87270656 19.90234375 48.30859375 C19.90556641 47.36435547 19.90878906 46.42011719 19.91210938 45.44726562 C19.92048828 44.45404297 19.92886719 43.46082031 19.9375 42.4375 C19.94201172 41.44041016 19.94652344 40.44332031 19.95117188 39.41601562 C19.96299977 36.94398513 19.98093585 34.47198528 20 32 C14.06 32 8.12 32 2 32 C2.01160156 33.42054688 2.02320313 34.84109375 2.03515625 36.3046875 C2.04453387 38.16145702 2.0536341 40.01822796 2.0625 41.875 C2.07087891 42.81214844 2.07925781 43.74929687 2.08789062 44.71484375 C2.09111328 45.61074219 2.09433594 46.50664062 2.09765625 47.4296875 C2.10289307 48.25710449 2.10812988 49.08452148 2.11352539 49.93701172 C2 52 2 52 1 54 C-2.96 54 -6.92 54 -11 54 C-11 36.51 -11 19.02 -11 1 C-7.07703567 -0.30765478 -4.13997567 -0.1971417 0 0 Z " fill="#E0E1E0" transform="translate(181,191)"/>
<path d="M0 0 C3.96 0 7.92 0 12 0 C13.14358358 2.28716715 13.13384847 3.58548877 13.125 6.125 C13.12757813 6.84945312 13.13015625 7.57390625 13.1328125 8.3203125 C12.95560224 11.89579006 12.44402778 15.4477778 12 19 C18.27 19.33 24.54 19.66 31 20 C30.96041973 13.79207086 30.96041973 13.79207086 30.90991211 7.58422852 C30.90741455 6.81522217 30.90491699 6.04621582 30.90234375 5.25390625 C30.89448853 4.06776733 30.89448853 4.06776733 30.88647461 2.85766602 C31 1 31 1 32 0 C35.96 0 39.92 0 44 0 C44 17.49 44 34.98 44 53 C40.04 53 36.08 53 32 53 C31 52 31 52 30.88647461 49.95874023 C30.89171143 49.08419189 30.89694824 48.20964355 30.90234375 47.30859375 C30.90556641 46.36435547 30.90878906 45.42011719 30.91210938 44.44726562 C30.92048828 43.45404297 30.92886719 42.46082031 30.9375 41.4375 C30.94201172 40.44041016 30.94652344 39.44332031 30.95117188 38.41601562 C30.96299977 35.94398513 30.98093585 33.47198528 31 31 C25.06 31 19.12 31 13 31 C13.01160156 32.50433594 13.02320313 34.00867188 13.03515625 35.55859375 C13.04453249 37.51822793 13.05363287 39.47786345 13.0625 41.4375 C13.07087891 42.43072266 13.07925781 43.42394531 13.08789062 44.44726562 C13.09111328 45.39150391 13.09433594 46.33574219 13.09765625 47.30859375 C13.10289307 48.18314209 13.10812988 49.05769043 13.11352539 49.95874023 C13 52 13 52 12 53 C9.98035801 53.07244053 7.95832876 53.08377188 5.9375 53.0625 C4.28041016 53.04896484 4.28041016 53.04896484 2.58984375 53.03515625 C1.73519531 53.02355469 0.88054687 53.01195312 0 53 C-1.25634767 47.17692827 -1.15033821 41.42506835 -1.125 35.5 C-1.12306641 34.40953369 -1.12113281 33.31906738 -1.11914062 32.19555664 C-1.0632295 21.4474192 -0.5967047 10.73002922 0 0 Z " fill="#E0E0E0" transform="translate(393,192)"/>
<path d="M0 0 C4.29 0 8.58 0 13 0 C12.99476318 1.00377686 12.98952637 2.00755371 12.98413086 3.04174805 C12.9659826 6.77839257 12.95453213 10.51503321 12.94506836 14.25170898 C12.94005058 15.86662451 12.93323489 17.48153552 12.92456055 19.09643555 C12.91238286 21.42237465 12.90674605 23.7482535 12.90234375 26.07421875 C12.89718246 26.79212082 12.89202118 27.51002289 12.88670349 28.24967957 C12.88629124 31.96290232 13.11055784 35.38991122 14 39 C17.14930893 40.04976964 19.38814456 40.10131595 22.6875 40.0625 C23.68136719 40.05347656 24.67523438 40.04445312 25.69921875 40.03515625 C26.83810547 40.01775391 26.83810547 40.01775391 28 40 C29.24250045 36.27249864 29.21262914 32.75347974 29.28125 28.8671875 C29.29965942 28.0747464 29.31806885 27.2823053 29.33703613 26.46585083 C29.41573578 23.07453923 29.48365914 19.68303282 29.55224609 16.29150391 C29.6038356 13.81662763 29.66111942 11.34192925 29.71875 8.8671875 C29.73232544 8.09430389 29.74590088 7.32142029 29.7598877 6.52511597 C29.88714666 1.11285334 29.88714666 1.11285334 31 0 C33.18639453 -0.07258946 35.37500389 -0.08373783 37.5625 -0.0625 C39.35880859 -0.04896484 39.35880859 -0.04896484 41.19140625 -0.03515625 C42.11824219 -0.02355469 43.04507813 -0.01195312 44 0 C44.04959331 5.30190684 44.085811 10.60367737 44.10986328 15.90576172 C44.11989476 17.70786899 44.13352315 19.5099601 44.15087891 21.31201172 C44.175253 23.90856935 44.18651178 26.50491097 44.1953125 29.1015625 C44.20563507 29.9017984 44.21595764 30.7020343 44.22659302 31.52651978 C44.22749887 36.08590521 43.73602816 39.70498223 42 44 C41.34 44 40.68 44 40 44 C40 44.99 40 45.98 40 47 C39.34 47 38.68 47 38 47 C38 47.66 38 48.32 38 49 C30.12017789 53.60895256 23.11487119 55.65492425 13.8671875 53.50390625 C8.39557513 51.33243677 4.05338219 48.05258775 1.36230469 42.80883789 C-0.1854087 38.97625291 -0.44383132 35.44845008 -0.546875 31.30859375 C-0.56719788 30.60025894 -0.58752075 29.89192413 -0.60845947 29.16212463 C-0.64839677 27.67570977 -0.6816561 26.18910162 -0.70849609 24.70239258 C-0.74996122 22.43961646 -0.81266758 20.17818896 -0.87890625 17.91601562 C-1.03308613 11.76378895 -1.01841005 6.11046029 0 0 Z " fill="#DEDFDE" transform="translate(339,192)"/>
<path d="M0 0 C1.45599609 0.00966797 1.45599609 0.00966797 2.94140625 0.01953125 C5.4375 0.1875 5.4375 0.1875 7.4375 1.1875 C8.39516268 3.44289796 9.24191572 5.66656909 10.046875 7.9765625 C10.2961676 8.67204193 10.54546021 9.36752136 10.80230713 10.08407593 C11.604218 12.32451085 12.39637099 14.56823757 13.1875 16.8125 C14.22004731 19.72275851 15.25748695 22.63124097 16.296875 25.5390625 C16.55239136 26.25837952 16.80790771 26.97769653 17.07116699 27.71881104 C18.36370739 31.32655336 19.70722907 34.90025111 21.16601562 38.44433594 C21.4446344 39.1212851 21.72325317 39.79823425 22.01031494 40.49569702 C22.77940417 42.34385879 23.56162942 44.18653853 24.34472656 46.02880859 C25.4375 49.1875 25.4375 49.1875 25.4375 54.1875 C21.1475 54.1875 16.8575 54.1875 12.4375 54.1875 C10.4375 49.1875 10.4375 49.1875 10.4375 45.1875 C0.0425 45.6825 0.0425 45.6825 -10.5625 46.1875 C-11.2225 48.1675 -11.8825 50.1475 -12.5625 52.1875 C-12.8925 52.8475 -13.2225 53.5075 -13.5625 54.1875 C-17.5225 54.1875 -21.4825 54.1875 -25.5625 54.1875 C-26.71548283 50.7285515 -26.42337496 50.15570284 -25.12109375 46.8984375 C-24.78754883 46.04749512 -24.45400391 45.19655273 -24.11035156 44.31982422 C-23.74393555 43.40990723 -23.37751953 42.49999023 -23 41.5625 C-22.25218815 39.65692335 -21.50611651 37.75066293 -20.76171875 35.84375 C-20.38837402 34.89113281 -20.0150293 33.93851563 -19.63037109 32.95703125 C-18.11199969 29.01912426 -16.70050707 25.04788041 -15.3125 21.0625 C-15.07031738 20.37325439 -14.82813477 19.68400879 -14.57861328 18.97387695 C-13.50353177 15.90926398 -12.44559859 12.83996597 -11.41015625 9.76171875 C-11.06855469 8.76785156 -10.72695312 7.77398437 -10.375 6.75 C-10.09269531 5.90566406 -9.81039062 5.06132812 -9.51953125 4.19140625 C-7.45066638 -0.14054347 -4.28759267 -0.06280096 0 0 Z M-1.5625 20.1875 C-2.23555018 21.78899886 -2.90072227 23.39381029 -3.5625 25 C-3.93375 25.89332031 -4.305 26.78664062 -4.6875 27.70703125 C-5.72883237 30.2206433 -5.72883237 30.2206433 -5.5625 33.1875 C-2.2625 33.1875 1.0375 33.1875 4.4375 33.1875 C3.88894652 28.616221 3.02005197 24.51314205 1.4375 20.1875 C0.4475 20.1875 -0.5425 20.1875 -1.5625 20.1875 Z " fill="#D1D1CF" transform="translate(138.5625,190.8125)"/>
<path d="M0 0 C4.62 0 9.24 0 14 0 C23.63974699 24.50637901 23.63974699 24.50637901 27.7109375 35.53125 C28.54993882 37.78892628 29.40837714 40.03950544 30.2890625 42.28125 C30.66804688 43.2609375 31.04703125 44.240625 31.4375 45.25 C31.93056641 46.49523437 31.93056641 46.49523437 32.43359375 47.765625 C33 50 33 50 32 54 C28.04 54 24.08 54 20 54 C17 47.375 17 47.375 17 44 C10.4 44 3.8 44 -3 44 C-3.99 46.97 -4.98 49.94 -6 53 C-7 54 -7 54 -9.72265625 54.09765625 C-10.82480469 54.08605469 -11.92695313 54.07445312 -13.0625 54.0625 C-14.16722656 54.05347656 -15.27195313 54.04445313 -16.41015625 54.03515625 C-17.69212891 54.01775391 -17.69212891 54.01775391 -19 54 C-18.44536056 48.19169248 -16.76762452 43.47579347 -14.5 38.125 C-10.67657322 28.86363404 -7.23388302 19.49279977 -3.8828125 10.05126953 C-3.33947266 8.52155518 -3.33947266 8.52155518 -2.78515625 6.9609375 C-2.46426025 6.05134277 -2.14336426 5.14174805 -1.81274414 4.20458984 C-1 2 -1 2 0 0 Z M6 17 C4.35 21.95 2.7 26.9 1 32 C2.05978933 33.28612676 2.05978933 33.28612676 4.50390625 33.09765625 C5.51324219 33.08605469 6.52257812 33.07445312 7.5625 33.0625 C8.57441406 33.05347656 9.58632812 33.04445313 10.62890625 33.03515625 C11.41136719 33.02355469 12.19382813 33.01195312 13 33 C12.21735638 30.51764563 11.42444723 28.03943904 10.625 25.5625 C10.40328125 24.85544922 10.1815625 24.14839844 9.953125 23.41992188 C9.35897394 21.5937811 8.68450381 19.79422968 8 18 C7.34 17.67 6.68 17.34 6 17 Z " fill="#E0E1E1" transform="translate(231,262)"/>
<path d="M0 0 C4.29 0 8.58 0 13 0 C13.02464032 7.52970132 13.04283141 15.05937939 13.05493164 22.58911133 C13.0599737 25.15291757 13.06680714 27.71672091 13.07543945 30.28051758 C13.08751064 33.95655021 13.09322942 37.63254498 13.09765625 41.30859375 C13.10281754 42.46274277 13.10797882 43.61689178 13.11329651 44.80601501 C13.11337204 45.86703934 13.11344757 46.92806366 13.11352539 48.02124023 C13.115746 48.96055893 13.11796661 49.89987762 13.12025452 50.86766052 C13 53 13 53 12 54 C10.16884117 54.09851171 8.33380067 54.12972629 6.5 54.125 C5.4996875 54.12757813 4.499375 54.13015625 3.46875 54.1328125 C1 54 1 54 0 53 C-0.09346915 51.34261557 -0.11744977 49.68125356 -0.11352539 48.02124023 C-0.11344986 46.96021591 -0.11337433 45.89919159 -0.11329651 44.80601501 C-0.10813522 43.651866 -0.10297394 42.49771698 -0.09765625 41.30859375 C-0.0962413 40.13361832 -0.09482635 38.95864288 -0.09336853 37.74806213 C-0.08774992 33.97784936 -0.07519426 30.20769496 -0.0625 26.4375 C-0.0574874 23.88867273 -0.05292408 21.33984453 -0.04882812 18.79101562 C-0.03777444 12.5273211 -0.02049734 6.26367046 0 0 Z " fill="#F0F0F0" transform="translate(271,262)"/>
<path d="M0 0 C3.375 0.25 3.375 0.25 7 1 C9.81206894 4.51508618 9.02348435 8.53403556 8.625 12.75 C8.56828125 13.44738281 8.5115625 14.14476562 8.453125 14.86328125 C8.31232128 16.57639312 8.15754028 18.28834611 8 20 C8.99 20.33 9.98 20.66 11 21 C11.28875 21.969375 11.5775 22.93875 11.875 23.9375 C12.68174152 27.09052652 12.68174152 27.09052652 15.0625 28.3125 C18.35364761 29.08276859 21.54248501 29.38023385 24.9140625 29.55859375 C27.48713729 30.10308336 28.44617189 30.90132308 30 33 C29.625 35.5625 29.625 35.5625 29 38 C29.33 38.66 29.66 39.32 30 40 C24.75524183 42.62237908 15.47445526 41.44608252 10 40 C3.01393484 36.13680019 -1.4849005 30.5452985 -4 23 C-4.09130522 21.62732077 -4.13065525 20.25071082 -4.1328125 18.875 C-4.13410156 18.08609375 -4.13539063 17.2971875 -4.13671875 16.484375 C-4.13285156 15.66453125 -4.12898438 14.8446875 -4.125 14 C-4.12886719 13.18015625 -4.13273437 12.3603125 -4.13671875 11.515625 C-4.13542969 10.72671875 -4.13414062 9.9378125 -4.1328125 9.125 C-4.13168457 8.40570313 -4.13055664 7.68640625 -4.12939453 6.9453125 C-4 5 -4 5 -3 2 C-2.01 2 -1.02 2 0 2 C0 1.34 0 0.68 0 0 Z " fill="#E7E7E6" transform="translate(282,204)"/>
<path d="M0 0 C1.45599609 0.00966797 1.45599609 0.00966797 2.94140625 0.01953125 C5.4375 0.1875 5.4375 0.1875 7.4375 1.1875 C8.45338176 3.57048617 9.36022085 5.92472795 10.22265625 8.36328125 C10.61438271 9.44563301 10.61438271 9.44563301 11.01402283 10.54985046 C11.56617714 12.07946895 12.11487477 13.61033891 12.66040039 15.14233398 C13.49369019 17.48228153 14.33664999 19.8185524 15.18164062 22.15429688 C15.7167169 23.64041951 16.25124016 25.1267414 16.78515625 26.61328125 C17.16173119 27.66036003 17.16173119 27.66036003 17.5459137 28.72859192 C18.65744696 31.85393658 19.72739385 34.94404218 20.4375 38.1875 C18.4129262 36.25495228 17.01644208 34.55591312 15.4375 32.1875 C15.1075 32.8475 14.7775 33.5075 14.4375 34.1875 C13.7775 34.1875 13.1175 34.1875 12.4375 34.1875 C12.4375 34.8475 12.4375 35.5075 12.4375 36.1875 C10.7875 36.1875 9.1375 36.1875 7.4375 36.1875 C7.4375 35.5275 7.4375 34.8675 7.4375 34.1875 C3.1475 34.1875 -1.1425 34.1875 -5.5625 34.1875 C-5.5625 33.8575 -5.5625 33.5275 -5.5625 33.1875 C-2.2625 33.1875 1.0375 33.1875 4.4375 33.1875 C4.2209375 32.50042969 4.004375 31.81335938 3.78125 31.10546875 C3.5028125 30.20441406 3.224375 29.30335938 2.9375 28.375 C2.6590625 27.48167969 2.380625 26.58835938 2.09375 25.66796875 C1.4375 23.1875 1.4375 23.1875 1.4375 20.1875 C0.4475 20.1875 -0.5425 20.1875 -1.5625 20.1875 C-2.2225 21.5075 -2.8825 22.8275 -3.5625 24.1875 C-3.2325 19.8975 -2.9025 15.6075 -2.5625 11.1875 C-3.5525 10.8575 -4.5425 10.5275 -5.5625 10.1875 C-6.75 8.125 -6.75 8.125 -7.5625 6.1875 C-7.5625 7.1775 -7.5625 8.1675 -7.5625 9.1875 C-8.2225 9.1875 -8.8825 9.1875 -9.5625 9.1875 C-9.5625 10.1775 -9.5625 11.1675 -9.5625 12.1875 C-10.2225 12.1875 -10.8825 12.1875 -11.5625 12.1875 C-11.13880928 10.5588449 -10.6980377 8.93462622 -10.25 7.3125 C-10.00636719 6.40757812 -9.76273438 5.50265625 -9.51171875 4.5703125 C-7.64799517 -0.10817057 -4.49508558 -0.06584013 0 0 Z M9.4375 36.1875 C9.7675 36.8475 10.0975 37.5075 10.4375 38.1875 C9.7775 37.8575 9.1175 37.5275 8.4375 37.1875 C8.7675 36.8575 9.0975 36.5275 9.4375 36.1875 Z " fill="#D8D8D5" transform="translate(138.5625,190.8125)"/>
<path d="M0 0 C4.29 0 8.58 0 13 0 C12.34 12.21 11.68 24.42 11 37 C10.34 37 9.68 37 9 37 C9 38.65 9 40.3 9 42 C8.34 42 7.68 42 7 42 C7 43.32 7 44.64 7 46 C6.01 45.67 5.02 45.34 4 45 C4 44.34 4 43.68 4 43 C3.01 42.67 2.02 42.34 1 42 C-0.15775371 38.52673886 -0.24707005 35.31852215 -0.3515625 31.69921875 C-0.37471527 30.98522415 -0.39786804 30.27122955 -0.42172241 29.53559875 C-0.46930501 28.0251862 -0.51454592 26.51469832 -0.55761719 25.00415039 C-0.62445527 22.70622807 -0.70237308 20.40886487 -0.78125 18.11132812 C-0.82619596 16.64064548 -0.87048779 15.16994266 -0.9140625 13.69921875 C-0.93796051 13.01776291 -0.96185852 12.33630707 -0.98648071 11.63420105 C-1.09355686 7.50473738 -0.6933347 4.16000821 0 0 Z " fill="#E3E4E3" transform="translate(339,192)"/>
<path d="M0 0 C4.62 0 9.24 0 14 0 C15.50409789 3.79008793 17.0034468 7.58193424 18.5 11.375 C18.92925781 12.45523437 19.35851562 13.53546875 19.80078125 14.6484375 C20.40986328 16.1953125 20.40986328 16.1953125 21.03125 17.7734375 C21.40830078 18.72653809 21.78535156 19.67963867 22.17382812 20.66162109 C23 23 23 23 23 25 C22.34 25 21.68 25 21 25 C20.34 24.01 19.68 23.02 19 22 C17.00016466 22.79117904 17.00016466 22.79117904 15 24 C14.67 24.99 14.34 25.98 14 27 C13.34 27 12.68 27 12 27 C11.67 27.66 11.34 28.32 11 29 C9.68 25.37 8.36 21.74 7 18 C6.34 18.66 5.68 19.32 5 20 C4.67 18.35 4.34 16.7 4 15 C3.67 15.33 3.34 15.66 3 16 C0.32941149 16.14115161 -2.32432238 16.04247107 -5 16 C-5.33 16.99 -5.66 17.98 -6 19 C-5.1005261 12.19708244 -2.52877488 6.35435738 0 0 Z " fill="#DEDFDE" transform="translate(231,262)"/>
<path d="M0 0 C5.41682568 4.8364515 8.51186982 11.28204851 11 18 C11 19.65 11 21.3 11 23 C6.71 23 2.42 23 -2 23 C-4 18 -4 18 -4 12 C-9.61 12 -15.22 12 -21 12 C-20.67 9.69 -20.34 7.38 -20 5 C-20.99 4.34 -21.98 3.68 -23 3 C-20.43721301 2.94579299 -17.87558517 2.90622993 -15.3125 2.875 C-14.59126953 2.85824219 -13.87003906 2.84148437 -13.12695312 2.82421875 C-8.95123219 2.78608431 -5.7505862 3.1210081 -2 5 C-2 4.34 -2 3.68 -2 3 C-1.34 3 -0.68 3 0 3 C0 2.01 0 1.02 0 0 Z M-5 5 C-5.33 5.66 -5.66 6.32 -6 7 C-5.34 7 -4.68 7 -4 7 C-4.33 6.34 -4.66 5.68 -5 5 Z " fill="#EEECEA" transform="translate(153,222)"/>
<path d="M0 0 C0.99 0 1.98 0 3 0 C4.66760693 3.33521386 4.26878325 7.02403628 4.3125 10.6875 C4.34150391 11.47833984 4.37050781 12.26917969 4.40039062 13.08398438 C4.47899618 20.40639412 2.28987771 24.4375178 -2.625 29.9375 C-5 32 -5 32 -7 32 C-7.99 30.02 -8.98 28.04 -10 26 C-11.65 26 -13.3 26 -15 26 C-14.67 25.01 -14.34 24.02 -14 23 C-14.66 22.67 -15.32 22.34 -16 22 C-15.3503125 21.63390625 -14.700625 21.2678125 -14.03125 20.890625 C-11.26742081 19.09925423 -9.1403533 17.51585388 -7 15 C-6.21745525 10.89291875 -6.45085161 7.12878237 -7 3 C-5.68 2.67 -4.36 2.34 -3 2 C-3 2.99 -3 3.98 -3 5 C-2.34 5 -1.68 5 -1 5 C-0.67 3.35 -0.34 1.7 0 0 Z " fill="#E0E1E0" transform="translate(106,209)"/>
<path d="M0 0 C8.29098091 -0.64511955 14.92516979 -0.7659189 21.9375 4.078125 C26.11055096 7.96664976 28.22199625 12.66598876 30 18 C30.07051114 20.73865287 30.09357765 23.45027588 30.0625 26.1875 C30.05798828 26.93708984 30.05347656 27.68667969 30.04882812 28.45898438 C30.03706354 30.30602383 30.01912865 32.15302213 30 34 C29.67 34 29.34 34 29 34 C28.67 28.39 28.34 22.78 28 17 C27.01 17.33 26.02 17.66 25 18 C25 19.65 25 21.3 25 23 C24.01 23.33 23.02 23.66 22 24 C22 23.01 22 22.02 22 21 C20.68 20.67 19.36 20.34 18 20 C18.33 23.96 18.66 27.92 19 32 C17.515 32.495 17.515 32.495 16 33 C16.02320312 32.20335937 16.04640625 31.40671875 16.0703125 30.5859375 C16.42148596 22.52213608 16.42148596 22.52213608 14 15 C11.60470331 13.67518454 11.60470331 13.67518454 9 13 C8.01 12.34 7.02 11.68 6 11 C7.32 10.34 8.64 9.68 10 9 C9.814375 8.401875 9.62875 7.80375 9.4375 7.1875 C9 5 9 5 10 2 C6.7 1.67 3.4 1.34 0 1 C0 0.67 0 0.34 0 0 Z " fill="#D3D3D2" transform="translate(81,192)"/>
<path d="M0 0 C0.33 0 0.66 0 1 0 C0.99476318 0.85231201 0.98952637 1.70462402 0.98413086 2.58276367 C0.96703668 5.76033273 0.95452438 8.93787825 0.94506836 12.11547852 C0.94005546 13.48788222 0.93324342 14.86028062 0.92456055 16.23266602 C0.91236143 18.21107651 0.90727752 20.1895268 0.90234375 22.16796875 C0.89710693 23.35672607 0.89187012 24.5454834 0.88647461 25.77026367 C0.98760521 28.64737487 1.33449807 31.20673413 2 34 C5.14930893 35.04976964 7.38814456 35.10131595 10.6875 35.0625 C11.68136719 35.05347656 12.67523438 35.04445312 13.69921875 35.03515625 C14.83810547 35.01775391 14.83810547 35.01775391 16 35 C16 35.66 16 36.32 16 37 C14.71073008 37.36279456 13.41846728 37.71496698 12.125 38.0625 C11.40570313 38.25972656 10.68640625 38.45695312 9.9453125 38.66015625 C8 39 8 39 6 38 C6 38.99 6 39.98 6 41 C4.68 40.67 3.36 40.34 2 40 C2 42.31 2 44.62 2 47 C3.5778125 46.4740625 3.5778125 46.4740625 5.1875 45.9375 C8.93218156 45.01667666 10.39036903 45.21953925 14 46 C16.03327085 45.1500831 16.03327085 45.1500831 18 44 C19.65740715 43.62331656 21.32345271 43.27942455 23 43 C23 43.99 23 44.98 23 46 C16.35445854 49.62484079 9.28791445 50.25856267 1.8828125 48.49609375 C-2.41533995 46.82459002 -5.70389336 44.13914918 -9 41 C-9.495 39.515 -9.495 39.515 -10 38 C-8 38 -8 38 -6.375 39.5 C-5.92125 39.995 -5.4675 40.49 -5 41 C-5 39.68 -5 38.36 -5 37 C-4.34 37 -3.68 37 -3 37 C-3.0309375 35.9171875 -3.0309375 35.9171875 -3.0625 34.8125 C-3 32 -3 32 -2.52954102 29.72387695 C-1.93719158 26.67692324 -1.68494662 23.70158247 -1.46484375 20.60546875 C-1.33432617 18.80239258 -1.33432617 18.80239258 -1.20117188 16.96289062 C-1.11416016 15.71701172 -1.02714844 14.47113281 -0.9375 13.1875 C-0.84662109 11.92228516 -0.75574219 10.65707031 -0.66210938 9.35351562 C-0.43857988 6.23586743 -0.21798043 3.11804027 0 0 Z " fill="#C7C6C4" transform="translate(351,197)"/>
<path d="M0 0 C1.45599609 0.00966797 1.45599609 0.00966797 2.94140625 0.01953125 C5.4375 0.1875 5.4375 0.1875 7.4375 1.1875 C8.42684385 3.49596899 9.30178282 5.75854378 10.125 8.125 C10.36283203 8.77146484 10.60066406 9.41792969 10.84570312 10.08398438 C11.44052158 11.7637796 11.94547995 13.47477198 12.4375 15.1875 C12.1075 15.8475 11.7775 16.5075 11.4375 17.1875 C10.4475 16.8575 9.4575 16.5275 8.4375 16.1875 C8.1075 15.5275 7.7775 14.8675 7.4375 14.1875 C6.4475 13.8575 5.4575 13.5275 4.4375 13.1875 C4.1075 14.5075 3.7775 15.8275 3.4375 17.1875 C2.7775 17.1875 2.1175 17.1875 1.4375 17.1875 C1.4375 18.1775 1.4375 19.1675 1.4375 20.1875 C0.4475 20.1875 -0.5425 20.1875 -1.5625 20.1875 C-2.2225 21.5075 -2.8825 22.8275 -3.5625 24.1875 C-3.2325 19.8975 -2.9025 15.6075 -2.5625 11.1875 C-3.5525 10.8575 -4.5425 10.5275 -5.5625 10.1875 C-6.75 8.125 -6.75 8.125 -7.5625 6.1875 C-7.5625 7.1775 -7.5625 8.1675 -7.5625 9.1875 C-8.2225 9.1875 -8.8825 9.1875 -9.5625 9.1875 C-9.5625 10.1775 -9.5625 11.1675 -9.5625 12.1875 C-10.2225 12.1875 -10.8825 12.1875 -11.5625 12.1875 C-11.13880928 10.5588449 -10.6980377 8.93462622 -10.25 7.3125 C-10.00636719 6.40757812 -9.76273438 5.50265625 -9.51171875 4.5703125 C-7.64799517 -0.10817057 -4.49508558 -0.06584013 0 0 Z " fill="#D3D3D2" transform="translate(138.5625,190.8125)"/>
<path d="M0 0 C0.66 0.33 1.32 0.66 2 1 C2 1.99 2 2.98 2 4 C3.32 4.33 4.64 4.66 6 5 C6.2248832 10.4042243 5.4886411 14.81275243 4 19.9375 C3.80921875 20.62134766 3.6184375 21.30519531 3.421875 22.00976562 C2.95595063 23.67544526 2.47911589 25.33806675 2 27 C0.35 25.68 -1.3 24.36 -3 23 C-3.4125 23.474375 -3.825 23.94875 -4.25 24.4375 C-6.182185 26.16266518 -7.48192275 26.56584875 -10 27 C-10 26.34 -10 25.68 -10 25 C-9.34 24.67 -8.68 24.34 -8 24 C-8.33 23.34 -8.66 22.68 -9 22 C-8.63500107 16.03835088 -6.59991898 11.33285706 -4 6 C-3.34 6 -2.68 6 -2 6 C-2 5.01 -2 4.02 -2 3 C-1.34 3 -0.68 3 0 3 C0 2.01 0 1.02 0 0 Z " fill="#E4E5E2" transform="translate(131,197)"/>
<path d="M0 0 C3.96 0 7.92 0 12 0 C12.66 0.66 13.32 1.32 14 2 C10.04 2 6.08 2 2 2 C2 11.24 2 20.48 2 30 C10.89261089 30 13.19676909 29.53548727 20 25 C19.7525 25.7425 19.505 26.485 19.25 27.25 C19.1675 28.1575 19.085 29.065 19 30 C20.83358335 32.33454661 20.83358335 32.33454661 23 34 C23.495 33.01 23.495 33.01 24 32 C26.31 32 28.62 32 31 32 C30.01 32.495 30.01 32.495 29 33 C29 33.66 29 34.32 29 35 C28.34 35 27.68 35 27 35 C26.67 35.99 26.34 36.98 26 38 C20.12089498 41.77150134 15.9886656 43.12534396 8.95703125 43.1328125 C7.80138672 43.13410156 6.64574219 43.13539063 5.45507812 43.13671875 C4.25302734 43.13285156 3.05097656 43.12898438 1.8125 43.125 C0.59884766 43.12886719 -0.61480469 43.13273437 -1.86523438 43.13671875 C-3.01701172 43.13542969 -4.16878906 43.13414062 -5.35546875 43.1328125 C-6.41403076 43.13168457 -7.47259277 43.13055664 -8.56323242 43.12939453 C-11 43 -11 43 -12 42 C-12.16796875 40.0390625 -12.16796875 40.0390625 -12.1875 37.625 C-12.20167969 36.83351562 -12.21585938 36.04203125 -12.23046875 35.2265625 C-12 33 -12 33 -10 30 C-9.67 33.63 -9.34 37.26 -9 41 C-5.83327442 41.02719516 -2.66678695 41.04693293 0.5 41.0625 C1.8303125 41.07506836 1.8303125 41.07506836 3.1875 41.08789062 C8.55823086 41.10763596 13.68633663 40.78835893 19 40 C19 39.34 19 38.68 19 38 C18.34 38 17.68 38 17 38 C16.01 34.535 16.01 34.535 15 31 C14.01 31.33 13.02 31.66 12 32 C8.04 32 4.08 32 0 32 C0 21.44 0 10.88 0 0 Z " fill="#B8B8BA" transform="translate(236,202)"/>
<path d="M0 0 C1.64861525 2.47292287 2.66488584 4.43579111 3.7265625 7.16015625 C4.0359375 7.95357422 4.3453125 8.74699219 4.6640625 9.56445312 C4.98117188 10.38880859 5.29828125 11.21316406 5.625 12.0625 C5.94984375 12.89072266 6.2746875 13.71894531 6.609375 14.57226562 C9 20.74469866 9 20.74469866 9 23 C8.34 23 7.68 23 7 23 C6.34 22.01 5.68 21.02 5 20 C3.00016466 20.79117904 3.00016466 20.79117904 1 22 C0.67 22.99 0.34 23.98 0 25 C-0.66 25 -1.32 25 -2 25 C-2.33 25.66 -2.66 26.32 -3 27 C-3.64836042 25.25093469 -4.29358784 23.50070781 -4.9375 21.75 C-5.29714844 20.77546875 -5.65679687 19.8009375 -6.02734375 18.796875 C-6.81379655 16.53542839 -7.47251601 14.33203448 -8 12 C-7.01 12 -6.02 12 -5 12 C-5.66 10.68 -6.32 9.36 -7 8 C-5.68 7.67 -4.36 7.34 -3 7 C-2.814375 6.1028125 -2.814375 6.1028125 -2.625 5.1875 C-2 3 -2 3 0 0 Z " fill="#D8D8D8" transform="translate(245,264)"/>
<path d="M0 0 C4.29 0 8.58 0 13 0 C13.02464032 7.52970132 13.04283141 15.05937939 13.05493164 22.58911133 C13.0599737 25.15291757 13.06680714 27.71672091 13.07543945 30.28051758 C13.08751064 33.95655021 13.09322942 37.63254498 13.09765625 41.30859375 C13.10281754 42.46274277 13.10797882 43.61689178 13.11329651 44.80601501 C13.11337204 45.86703934 13.11344757 46.92806366 13.11352539 48.02124023 C13.115746 48.96055893 13.11796661 49.89987762 13.12025452 50.86766052 C13 53 13 53 12 54 C10.16884117 54.09851171 8.33380067 54.12972629 6.5 54.125 C5.4996875 54.12757813 4.499375 54.13015625 3.46875 54.1328125 C1 54 1 54 0 53 C-0.09346915 51.34261557 -0.11744977 49.68125356 -0.11352539 48.02124023 C-0.11344986 46.96021591 -0.11337433 45.89919159 -0.11329651 44.80601501 C-0.10813522 43.651866 -0.10297394 42.49771698 -0.09765625 41.30859375 C-0.0962413 40.13361832 -0.09482635 38.95864288 -0.09336853 37.74806213 C-0.08774992 33.97784936 -0.07519426 30.20769496 -0.0625 26.4375 C-0.0574874 23.88867273 -0.05292408 21.33984453 -0.04882812 18.79101562 C-0.03777444 12.5273211 -0.02049734 6.26367046 0 0 Z M1 1 C1 17.83 1 34.66 1 52 C4.3 52 7.6 52 11 52 C12.33744923 35.01917144 12.09843897 18.01934147 12 1 C8.37 1 4.74 1 1 1 Z " fill="#6F7176" transform="translate(271,262)"/>
<path d="M0 0 C0.33 0 0.66 0 1 0 C1.02526739 7.24486551 1.0428318 14.48971974 1.05493164 21.73461914 C1.05997356 24.20142033 1.06680691 26.66821852 1.07543945 29.13500977 C1.08751125 32.67204529 1.09322956 36.20904145 1.09765625 39.74609375 C1.10281754 40.85649521 1.10797882 41.96689667 1.11329651 43.11094666 C1.11337204 44.13192947 1.11344757 45.15291229 1.11352539 46.20483398 C1.115746 47.10862289 1.11796661 48.0124118 1.12025452 48.94358826 C1 51 1 51 0 52 C-1.99799572 52.09873816 -3.99957158 52.12971799 -6 52.125 C-7.093125 52.12757813 -8.18625 52.13015625 -9.3125 52.1328125 C-12 52 -12 52 -13 51 C-13.08685603 49.43827255 -13.10702219 47.87270656 -13.09765625 46.30859375 C-13.09443359 45.36435547 -13.09121094 44.42011719 -13.08789062 43.44726562 C-13.07951172 42.45404297 -13.07113281 41.46082031 -13.0625 40.4375 C-13.05798828 39.44041016 -13.05347656 38.44332031 -13.04882812 37.41601562 C-13.03700007 34.94395151 -13.02051849 32.47200482 -13 30 C-12.34 30 -11.68 30 -11 30 C-11 36.6 -11 43.2 -11 50 C-7.7 50 -4.4 50 -1 50 C-0.67 33.5 -0.34 17 0 0 Z " fill="#7A8587" transform="translate(214,193)"/>
<path d="M0 0 C2.60444348 -0.05394705 5.20776998 -0.09364469 7.8125 -0.125 C8.55048828 -0.14175781 9.28847656 -0.15851563 10.04882812 -0.17578125 C13.91246426 -0.21074628 15.70903668 -0.19397555 19 2 C17.68 3.65 16.36 5.3 15 7 C15.99 7.66 16.98 8.32 18 9 C12.72 9 7.44 9 2 9 C2.33 6.69 2.66 4.38 3 2 C2.01 1.34 1.02 0.68 0 0 Z " fill="#F1F1ED" transform="translate(130,225)"/>
<path d="M0 0 C-2.53758045 3.80637067 -3.55983872 4.00479144 -8 5 C-15.06460663 5.568304 -20.72495032 5.42275437 -27 2 C-27 1.67 -27 1.34 -27 1 C-25.35 1 -23.7 1 -22 1 C-22 1.66 -22 2.32 -22 3 C-20.948125 2.649375 -19.89625 2.29875 -18.8125 1.9375 C-15.06781844 1.01667666 -13.60963097 1.21953925 -10 2 C-7.86644906 1.18330183 -7.86644906 1.18330183 -6 0 C-3 -1 -3 -1 0 0 Z " fill="#ADACAA" transform="translate(375,241)"/>
<path d="M0 0 C0.99 0.99 1.98 1.98 3 3 C4.34262065 2.70630173 5.67696283 2.3721042 7 2 C7.99 2.66 8.98 3.32 10 4 C9.34 4 8.68 4 8 4 C8 5.65 8 7.3 8 9 C7.34 9 6.68 9 6 9 C6 10.32 6 11.64 6 13 C5.01 12.67 4.02 12.34 3 12 C3 11.34 3 10.68 3 10 C2.34 10 1.68 10 1 10 C0.67 6.7 0.34 3.4 0 0 Z " fill="#F1F2F2" transform="translate(340,225)"/>
<path d="M0 0 C2.29633824 3.44450737 2.54016485 5.93812283 3 10 C-1.29 10 -5.58 10 -10 10 C-12.25 4.375 -12.25 4.375 -11 1 C-10.34 3.31 -9.68 5.62 -9 8 C-6.36 7.67 -3.72 7.34 -1 7 C-0.67 4.69 -0.34 2.38 0 0 Z " fill="#9B9BA2" transform="translate(161,235)"/>
<path d="M0 0 C2.27057377 -0.05398987 4.54151288 -0.09278742 6.8125 -0.125 C8.07707031 -0.14820313 9.34164062 -0.17140625 10.64453125 -0.1953125 C14 0 14 0 17 2 C16.67 3.65 16.34 5.3 16 7 C12.86650268 8.04449911 12.01031744 7.93423645 9 7 C9.33 5.35 9.66 3.7 10 2 C6.7 1.67 3.4 1.34 0 1 C0 0.67 0 0.34 0 0 Z " fill="#D9DAD9" transform="translate(81,192)"/>
<path d="M0 0 C1.32 0.33 2.64 0.66 4 1 C3.67 3.31 3.34 5.62 3 8 C-0.96 8 -4.92 8 -9 8 C-9.33 7.01 -9.66 6.02 -10 5 C-9.34 4.01 -8.68 3.02 -8 2 C-8 3.32 -8 4.64 -8 6 C-5.03 6 -2.06 6 1 6 C1 5.34 1 4.68 1 4 C0.34 4 -0.32 4 -1 4 C-0.67 2.68 -0.34 1.36 0 0 Z " fill="#BCBDBF" transform="translate(122,237)"/>
<path d="M0 0 C0.33 0.99 0.66 1.98 1 3 C4.14930893 4.04976964 6.38814456 4.10131595 9.6875 4.0625 C10.68136719 4.05347656 11.67523438 4.04445312 12.69921875 4.03515625 C13.45847656 4.02355469 14.21773438 4.01195312 15 4 C15 4.66 15 5.32 15 6 C13.71073008 6.36279456 12.41846728 6.71496698 11.125 7.0625 C10.40570313 7.25972656 9.68640625 7.45695313 8.9453125 7.66015625 C7 8 7 8 5 7 C5 7.99 5 8.98 5 10 C3.35 10 1.7 10 0 10 C0 6.7 0 3.4 0 0 Z " fill="#B9B9BB" transform="translate(352,228)"/>
<path d="M0 0 C0.33 0 0.66 0 1 0 C1.33 3.63 1.66 7.26 2 11 C9.92 11.33 17.84 11.66 26 12 C26 12.33 26 12.66 26 13 C21.68751391 13.02886537 17.37505238 13.04675255 13.0625 13.0625 C11.83080078 13.07087891 10.59910156 13.07925781 9.33007812 13.08789062 C8.16025391 13.09111328 6.99042969 13.09433594 5.78515625 13.09765625 C4.15912476 13.10551147 4.15912476 13.10551147 2.50024414 13.11352539 C0 13 0 13 -1 12 C-1.09858603 10.5444063 -1.12972143 9.08392081 -1.125 7.625 C-1.12886719 6.43777344 -1.12886719 6.43777344 -1.1328125 5.2265625 C-1 3 -1 3 0 0 Z " fill="#7C777C" transform="translate(225,232)"/>
<path d="M0 0 C0.93423645 3.01031744 1.04449911 3.86650268 0 7 C3.63 7 7.26 7 11 7 C10.67 7.66 10.34 8.32 10 9 C6.04 9 2.08 9 -2 9 C-1.125 2.25 -1.125 2.25 0 0 Z " fill="#72727B" transform="translate(214,307)"/>
<path d="M0 0 C0.99 0.33 1.98 0.66 3 1 C2.34 1.66 1.68 2.32 1 3 C1.99 3 2.98 3 4 3 C4.33 3.66 4.66 4.32 5 5 C5.66 5 6.32 5 7 5 C7 5.66 7 6.32 7 7 C4.03 7 1.06 7 -2 7 C-2.125 4.625 -2.125 4.625 -2 2 C-1.34 1.34 -0.68 0.68 0 0 Z " fill="#F0EDEA" transform="translate(116,236)"/>
<path d="M0 0 C0.33 0 0.66 0 1 0 C1.02701408 2.10409639 1.04640223 4.20829178 1.0625 6.3125 C1.07410156 7.48425781 1.08570313 8.65601563 1.09765625 9.86328125 C1 13 1 13 0 16 C-0.66 16 -1.32 16 -2 16 C-2 16.99 -2 17.98 -2 19 C-2.66 19 -3.32 19 -4 19 C-4.33 17.35 -4.66 15.7 -5 14 C-4.34 14 -3.68 14 -3 14 C-3 13.34 -3 12.68 -3 12 C-2.01 12 -1.02 12 0 12 C0 8.04 0 4.08 0 0 Z " fill="#BAB9BA" transform="translate(381,220)"/>
<path d="M0 0 C0.97401297 3.4090454 1.64379827 6.49051181 0.1953125 9.88671875 C-2.77777778 14.88888889 -2.77777778 14.88888889 -5 16 C-4.39363767 10.23955788 -2.24341721 5.27985631 0 0 Z " fill="#AEB4B4" transform="translate(222,286)"/>
<path d="M0 0 C0.99 0.33 1.98 0.66 3 1 C2.67 2.32 2.34 3.64 2 5 C1.34 5 0.68 5 0 5 C0.57344937 7.86724686 0.8614515 8.8614515 3 11 C1.68 11.99 0.36 12.98 -1 14 C-2.32229189 11.35541621 -2.09677194 9.32238699 -2.0625 6.375 C-2.05347656 5.37210938 -2.04445313 4.36921875 -2.03515625 3.3359375 C-2.02355469 2.56507813 -2.01195313 1.79421875 -2 1 C-1.34 0.67 -0.68 0.34 0 0 Z " fill="#F4F6F3" transform="translate(101,211)"/>
<path d="M0 0 C2.31 0 4.62 0 7 0 C6.01 0.495 6.01 0.495 5 1 C5 1.66 5 2.32 5 3 C4.34 3 3.68 3 3 3 C2.67 3.99 2.34 4.98 2 6 C1.01 6.33 0.02 6.66 -1 7 C-0.67 4.69 -0.34 2.38 0 0 Z " fill="#C0BCBD" transform="translate(260,234)"/>
<path d="M0 0 C1.65 0 3.3 0 5 0 C5 0.66 5 1.32 5 2 C6.6396875 1.4740625 6.6396875 1.4740625 8.3125 0.9375 C12 0 12 0 15 1 C15 1.66 15 2.32 15 3 C13.06318839 3.08107583 11.1254066 3.13922475 9.1875 3.1875 C8.10855469 3.22230469 7.02960938 3.25710937 5.91796875 3.29296875 C3 3 3 3 1.11328125 1.48828125 C0.56220703 0.75158203 0.56220703 0.75158203 0 0 Z " fill="#C5C1BF" transform="translate(348,242)"/>
<path d="M0 0 C0.99 0.33 1.98 0.66 3 1 C3.12375 1.7425 3.2475 2.485 3.375 3.25 C3.95486701 5.80141485 4.73708739 7.7267573 6 10 C3.525 9.01 3.525 9.01 1 8 C1 7.34 1 6.68 1 6 C0.34 5.67 -0.32 5.34 -1 5 C-0.67 3.35 -0.34 1.7 0 0 Z " fill="#CACBCB" transform="translate(249,197)"/>
<path d="M0 0 C0.99 0 1.98 0 3 0 C3.33 1.98 3.66 3.96 4 6 C2.35 6.33 0.7 6.66 -1 7 C-1.04254356 5.00045254 -1.04080783 2.99958364 -1 1 C-0.67 0.67 -0.34 0.34 0 0 Z " fill="#F2F4EF" transform="translate(106,209)"/>
<path d="M0 0 C0.66 0.33 1.32 0.66 2 1 C1.67 2.32 1.34 3.64 1 5 C-0.66666667 5 -2.33333333 5 -4 5 C-4 4.01 -4 3.02 -4 2 C-2.125 0.9375 -2.125 0.9375 0 0 Z " fill="#F5F4F0" transform="translate(250,283)"/>
<path d="M0 0 C1.60938465 2.41407698 2.65490738 4.34044437 3.6875 7 C3.95949219 7.680625 4.23148438 8.36125 4.51171875 9.0625 C5 11 5 11 4 14 C0.68557793 9.53273547 0.33990833 5.37992836 0 0 Z " fill="#8C8C8E" transform="translate(245,264)"/>
<path d="M0 0 C0.66 0 1.32 0 2 0 C2.33 1.98 2.66 3.96 3 6 C2.01 6 1.02 6 0 6 C-0.66 7.32 -1.32 8.64 -2 10 C-1.34 6.7 -0.68 3.4 0 0 Z " fill="#857A7E" transform="translate(137,205)"/>
<path d="M0 0 C0.33 0.99 0.66 1.98 1 3 C1.99 3.33 2.98 3.66 4 4 C2.35 5.65 0.7 7.3 -1 9 C-1.66 8.67 -2.32 8.34 -3 8 C-2.01 5.36 -1.02 2.72 0 0 Z " fill="#F3F3F0" transform="translate(225,282)"/>
<path d="M0 0 C0.99 0.33 1.98 0.66 3 1 C3 4.96 3 8.92 3 13 C2.01 13.33 1.02 13.66 0 14 C0 9.38 0 4.76 0 0 Z " fill="#969798" transform="translate(97,211)"/>
<path d="M0 0 C1.66666667 0 3.33333333 0 5 0 C5.66 2.31 6.32 4.62 7 7 C3.17053157 5.54744301 1.87949705 3.57104439 0 0 Z " fill="#908C8F" transform="translate(282,234)"/>
<path d="M0 0 C1.0625 1.875 1.0625 1.875 2 4 C1.67 4.66 1.34 5.32 1 6 C0.34 6 -0.32 6 -1 6 C-1.33 6.99 -1.66 7.98 -2 9 C-1.51421457 5.87709365 -1.0013988 3.00419641 0 0 Z M3 1 C3 4 3 4 3 4 Z " fill="#A3A3A5" transform="translate(227,272)"/>
<path d="M0 0 C2 3 2 3 1.625 5.1875 C1.41875 5.785625 1.2125 6.38375 1 7 C-0.65 7.33 -2.3 7.66 -4 8 C-3.2884375 7.13375 -3.2884375 7.13375 -2.5625 6.25 C-1.0515133 4.07417916 -0.45963849 2.57397552 0 0 Z " fill="#B5B5B6" transform="translate(317,223)"/>
<path d="M0 0 C0.66 0 1.32 0 2 0 C2.33 0.66 2.66 1.32 3 2 C5.01669827 3.13350534 5.01669827 3.13350534 7 4 C7 4.99 7 5.98 7 7 C3.17053157 5.54744301 1.87949705 3.57104439 0 0 Z " fill="#9C9C9F" transform="translate(341,235)"/>
<path d="M0 0 C1.32 0 2.64 0 4 0 C3.67 1.65 3.34 3.3 3 5 C1.68 4.34 0.36 3.68 -1 3 C-0.67 2.01 -0.34 1.02 0 0 Z " fill="#F0F2F5" transform="translate(255,229)"/>
</svg>
